<svg aria-hidden="true" style="position: absolute; width: 0; height: 0; overflow: hidden;" version="1.1" xmlns="http://www.w3.org/2000/svg" xmlns:xlink="http://www.w3.org/1999/xlink">
<defs>
<symbol id="icon-cloud-arrow-down" viewBox="0 0 32 32">
<path d="M14 5c3.371 0 6.252 2.084 7.431 5.032 0.187-0.021 0.377-0.032 0.569-0.032 2.761 0 5 2.239 5 5 0 0.261-0.020 0.518-0.059 0.769 1.825 1.028 3.059 2.984 3.059 5.231 0 3.314-2.686 6-6 6h-15c-3.866 0-7-3.134-7-7 0-2.804 1.648-5.221 4.027-6.339-0.018-0.218-0.027-0.439-0.027-0.661 0-4.418 3.582-8 8-8zM17 13c0-0.552-0.448-1-1-1s-1 0.448-1 1v6.586l-2.293-2.293c-0.391-0.39-1.024-0.39-1.414 0s-0.39 1.024 0 1.414l4 4c0.391 0.39 1.024 0.39 1.414 0l4-4c0.39-0.391 0.39-1.024 0-1.414s-1.024-0.39-1.414 0l-2.293 2.293v-6.586z"></path>
</symbol>
</defs>
</svg>
